HIERARCHY
ROOT Hips
{
 OFFSET 0.000000 0.000000 0.000000
 CHANNELS 6 Xposition Yposition Zposition Yrotation Xrotation Zrotation
 JOINT Chest
 {
  OFFSET 0.000000 9.585900 0.002600
  CHANNELS 3 Yrotation Xrotation Zrotation
  JOINT Chest2
  {
   OFFSET 0.000000 9.601200 -0.005300
   CHANNELS 3 Yrotation Xrotation Zrotation
   JOINT Chest3
   {
    OFFSET 0.000000 9.561800 0.000000
    CHANNELS 3 Yrotation Xrotation Zrotation
    JOINT Chest4
    {
     OFFSET 0.000000 9.552100 0.000000
     CHANNELS 3 Yrotation Xrotation Zrotation
     JOINT Neck
     {
      OFFSET 0.000000 14.453000 0.000000
      CHANNELS 3 Yrotation Xrotation Zrotation
      JOINT Head
      {
       OFFSET 0.000000 8.936500 -0.011300
       CHANNELS 3 Yrotation Xrotation Zrotation
       End Site
       {
        OFFSET 0.000000 17.073600 -0.006000
       }
      }
     }
     JOINT RightCollar
     {
      OFFSET -2.921100 9.558500 0.000000
      CHANNELS 3 Yrotation Xrotation Zrotation
      JOINT RightShoulder
      {
       OFFSET -13.519700 0.000000 0.000000
       CHANNELS 3 Yrotation Xrotation Zrotation
       JOINT RightElbow
       {
        OFFSET 0.000000 -29.696600 0.000000
        CHANNELS 3 Yrotation Xrotation Zrotation
        JOINT RightWrist
        {
         OFFSET 0.000000 -24.004700 0.000000
         CHANNELS 3 Yrotation Xrotation Zrotation
         End Site
         {
          OFFSET 0.000000 -17.728500 0.000000
         }
        }
       }
      }
     }
     JOINT LeftCollar
     {
      OFFSET 2.921100 9.558500 0.000000
      CHANNELS 3 Yrotation Xrotation Zrotation
      JOINT LeftShoulder
      {
       OFFSET 13.519700 0.000000 0.000000
       CHANNELS 3 Yrotation Xrotation Zrotation
       JOINT LeftElbow
       {
        OFFSET 0.000000 -29.696600 0.000000
        CHANNELS 3 Yrotation Xrotation Zrotation
        JOINT LeftWrist
        {
         OFFSET 0.000000 -24.004700 0.000000
         CHANNELS 3 Yrotation Xrotation Zrotation
         End Site
         {
          OFFSET 0.000000 -17.728500 0.000000
         }
        }
       }
      }
     }
    }
   }
  }
 }
 JOINT RightHip
 {
  OFFSET -7.771700 -0.012900 -0.001300
  CHANNELS 3 Yrotation Xrotation Zrotation
  JOINT RightKnee
  {
   OFFSET 0.000000 -40.869800 0.001200
   CHANNELS 3 Yrotation Xrotation Zrotation
   JOINT RightAnkle
   {
    OFFSET 0.000000 -39.717900 0.002100
    CHANNELS 3 Yrotation Xrotation Zrotation
    JOINT RightToe
    {
     OFFSET 0.000000 -4.965400 11.033500
     CHANNELS 3 Yrotation Xrotation Zrotation
     End Site
     {
      OFFSET 0.000000 -1.423100 5.872300
     }
    }
   }
  }
 }
 JOINT LeftHip
 {
  OFFSET 7.771700 -0.012900 -0.001300
  CHANNELS 3 Yrotation Xrotation Zrotation
  JOINT LeftKnee
  {
   OFFSET 0.000000 -40.869800 0.001200
   CHANNELS 3 Yrotation Xrotation Zrotation
   JOINT LeftAnkle
   {
    OFFSET 0.000000 -39.717900 0.002100
    CHANNELS 3 Yrotation Xrotation Zrotation
    JOINT LeftToe
    {
     OFFSET 0.000000 -4.965400 11.033500
     CHANNELS 3 Yrotation Xrotation Zrotation
     End Site
     {
      OFFSET 0.000000 -1.423100 5.872300
     }
    }
   }
  }
 }
}
MOTION
Frames: 16
Frame Time: 0.008333
-67.945105 48.180611 15.305747 175.208799 -31.421646 -0.760551 -3.541215 11.579080 0.312736 -1.934069 6.664316 0.917706 -2.404794 8.334858 1.113610 -1.934052 6.664319 0.917746 1.824659 22.105649 -0.214015 3.355177 5.280755 -0.883388 10.625364 5.960210 -8.088452 25.913628 -49.749499 -48.266424 -45.309673 -59.388942 59.280548 -4.146627 -6.135009 -20.783740 0.178807 3.495331 -3.557374 3.968836 -27.385499 1.510537 -53.195602 -34.538999 28.385474 -7.232162 10.829766 38.145282 23.011440 -51.533384 -28.686729 -105.204182 66.567592 -96.408535 1.040999 -1.457804 4.010321 0.128610 -1.162167 0.100132 -3.536227 -53.375398 12.292714 95.403481 83.164189 92.947116 -6.877809 -7.974883 -1.057653 0.538792 0.924221 0.239126
-67.947203 48.183123 15.295842 175.282785 -31.383013 -0.695744 -3.529788 11.601625 0.328272 -1.932360 6.672225 0.926345 -2.402591 8.344807 1.124392 -1.932385 6.672232 0.926380 1.812056 22.028332 -0.272548 3.349539 5.138618 -0.987644 10.636950 6.035427 -7.923576 25.380529 -49.448331 -47.823038 -44.487945 -59.621890 58.667565 -3.978420 -5.995466 -20.778410 0.149797 3.502269 -3.576634 3.947172 -27.382356 1.473302 -53.288693 -34.623299 28.462308 -7.279682 10.830587 38.148480 23.094094 -51.528747 -28.865768 -105.284267 66.563755 -96.510587 1.042994 -1.496534 4.014727 0.120695 -1.156569 0.112092 -3.508649 -53.403819 12.137601 95.244816 83.150047 92.770768 -6.859322 -7.960983 -1.065950 0.528237 0.918068 0.235237
-67.952195 48.184182 15.287610 175.450777 -31.327699 -0.668738 -3.603020 11.607940 0.331260 -1.930430 6.680242 0.935600 -2.400023 8.354915 1.135989 -1.930489 6.680239 0.935581 1.800185 21.950383 -0.332696 3.345756 4.995428 -1.095013 10.661725 6.101400 -7.757678 24.828531 -49.116013 -47.368181 -43.711956 -59.821670 58.093244 -3.834527 -5.863676 -20.750834 0.121403 3.507054 -3.594504 3.922116 -27.375082 1.433630 -53.373821 -34.723182 28.536977 -7.291656 10.834440 38.145970 23.162030 -51.529839 -29.092433 -105.398546 66.543872 -96.621858 0.981992 -1.449268 4.002705 0.181263 -1.228032 0.148857 -3.549896 -53.449661 11.961050 94.949759 83.133183 92.486771 -6.944425 -7.991911 -1.134679 0.630245 0.968113 0.276901
-67.945860 48.184225 15.281803 175.435161 -31.262157 -0.620841 -3.510058 11.607517 0.406442 -1.927080 6.687689 0.945434 -2.395551 8.364299 1.148334 -1.927094 6.687695 0.945387 1.788833 21.873712 -0.393433 3.343273 4.854636 -1.203702 10.694398 6.163956 -7.592991 24.276159 -48.757757 -46.903406 -42.975153 -59.992482 57.536997 -3.711220 -5.744149 -20.717878 0.096859 3.512008 -3.609616 3.889501 -27.367109 1.390388 -53.450438 -34.795903 28.615141 -7.287978 10.814342 38.140007 23.278027 -51.572163 -29.206138 -105.472753 66.535811 -96.701169 1.014627 -1.535915 4.027128 0.141907 -1.166578 0.138972 -3.545732 -53.502174 11.924759 94.782472 83.124888 92.305677 -6.872047 -7.931688 -1.141313 0.573393 0.920605 0.252302
-67.948295 48.183198 15.276531 175.464317 -31.185662 -0.550694 -3.470314 11.594935 0.432767 -1.920866 6.695185 0.955897 -2.387519 8.373664 1.161473 -1.920848 6.695212 0.955867 1.775744 21.798138 -0.454187 3.337756 4.715835 -1.312052 10.718464 6.225011 -7.434923 23.734720 -48.386559 -46.423390 -42.248016 -60.147341 56.968322 -3.602425 -5.640046 -20.692468 0.072993 3.513988 -3.620553 3.849933 -27.361531 1.341019 -53.509673 -34.865625 28.688076 -7.290090 10.787009 38.132531 23.398528 -51.608010 -29.386775 -105.504319 66.533165 -96.735219 0.986225 -1.556472 4.010353 0.164286 -1.159693 0.135108 -3.570315 -53.557748 11.829900 94.612249 83.099929 92.095303 -6.819042 -7.931697 -1.160620 0.545452 0.930770 0.239040
-67.951748 48.184809 15.266533 175.520823 -31.140210 -0.493177 -3.457339 11.613451 0.454981 -1.911632 6.703705 0.967149 -2.375823 8.384283 1.175664 -1.911623 6.703687 0.967175 1.759134 21.723340 -0.515091 3.325910 4.578497 -1.419615 10.732056 6.284461 -7.283503 23.200342 -48.009284 -45.931004 -41.500521 -60.306359 56.365277 -3.500700 -5.542954 -20.689902 0.042947 3.510507 -3.629956 3.809085 -27.361502 1.286069 -53.541129 -34.907632 28.746326 -7.299822 10.732005 38.124482 23.506240 -51.607791 -29.568383 -105.596969 66.525618 -96.831763 0.991824 -1.588613 4.029884 0.159310 -1.157376 0.129504 -3.560622 -53.594041 11.704709 94.485209 83.094852 91.956574 -6.802299 -7.914745 -1.181918 0.537059 0.920390 0.238755
-67.959012 48.189085 15.251608 175.600896 -31.126133 -0.429512 -3.470865 11.661706 0.456705 -1.900937 6.713100 0.979396 -2.362199 8.396032 1.191191 -1.900951 6.712999 0.979457 1.739246 21.650037 -0.577603 3.308648 4.443866 -1.529141 10.750461 6.337747 -7.132592 22.670004 -47.617538 -45.440617 -40.703534 -60.490950 55.697508 -3.395941 -5.445827 -20.717469 0.010164 3.504294 -3.639565 3.768427 -27.372022 1.225877 -53.569754 -34.951450 28.795713 -7.321803 10.691419 38.099015 23.624363 -51.553887 -29.770907 -105.718696 66.519267 -96.959596 1.019473 -1.645872 4.097427 0.124902 -1.140415 0.110647 -3.545101 -53.599353 11.548430 94.388787 83.080168 91.837439 -6.790595 -7.892542 -1.190514 0.526148 0.902992 0.233803
-67.961559 48.188305 15.245529 175.615614 -31.053398 -0.370501 -3.424706 11.654640 0.500357 -1.890247 6.722611 0.992563 -2.348452 8.408010 1.207839 -1.890301 6.722531 0.992569 1.718181 21.578432 -0.642919 3.290098 4.312415 -1.643472 10.781453 6.380979 -6.977809 22.154677 -47.206101 -44.969223 -39.836279 -60.711805 54.940343 -3.268652 -5.341520 -20.775539 -0.014302 3.497864 -3.647932 3.725463 -27.396226 1.158999 -53.596595 -34.993462 28.833487 -7.334849 10.656018 38.081078 23.749382 -51.584257 -29.935184 -105.752204 66.518529 -96.982810 0.997988 -1.665968 4.080423 0.144655 -1.127494 0.129244 -3.534011 -53.662177 11.464485 94.305954 83.065340 91.732134 -6.762171 -7.885538 -1.196800 0.508603 0.900794 0.222513
-67.963330 48.191149 15.233609 175.641930 -31.021710 -0.325044 -3.392082 11.691951 0.548888 -1.879904 6.732098 1.006266 -2.335173 8.419953 1.225130 -1.879957 6.732089 1.006216 1.696546 21.507926 -0.711778 3.271647 4.183167 -1.764077 10.821441 6.414503 -6.818252 21.668018 -46.780412 -44.531392 -38.887720 -60.969466 54.083447 -3.106534 -5.220863 -20.858222 -0.029231 3.489863 -3.656264 3.685852 -27.432738 1.085603 -53.619957 -35.027233 28.854677 -7.346762 10.620317 38.062869 23.818905 -51.585989 -30.047663 -105.811934 66.520972 -97.059377 1.006945 -1.692660 4.086559 0.127923 -1.131454 0.118045 -3.540410 -53.682412 11.385445 94.238068 83.051519 91.657291 -6.746221 -7.876397 -1.225271 0.515369 0.891259 0.220004
-67.972281 48.195024 15.219654 175.714121 -31.000470 -0.264443 -3.410606 11.739360 0.557738 -1.870222 6.742166 1.020387 -2.322761 8.432522 1.242931 -1.870229 6.742135 1.020328 1.674128 21.438226 -0.785356 3.253207 4.055568 -1.893024 10.871214 6.434037 -6.651947 21.209331 -46.342015 -44.130126 -37.847108 -61.261119 53.119392 -2.905036 -5.078084 -20.954773 -0.040581 3.477652 -3.667231 3.659800 -27.476800 1.009100 -53.663406 -35.075268 28.871255 -7.351950 10.602020 38.054122 23.914749 -51.550987 -30.231089 -105.924506 66.510856 -97.185473 1.031153 -1.752523 4.129206 0.104926 -1.116179 0.106235 -3.529298 -53.693123 11.229501 94.109381 83.020994 91.525048 -6.752329 -7.864647 -1.263557 0.516116 0.883977 0.228454
-67.979144 48.196299 15.210735 175.740913 -30.946337 -0.199542 -3.388979 11.755375 0.586844 -1.861772 6.753482 1.035181 -2.311947 8.446671 1.261503 -1.861752 6.753422 1.035115 1.652440 21.368823 -0.863894 3.237571 3.928706 -2.031075 10.939925 6.432087 -6.473904 20.765960 -45.886682 -43.758794 -36.724827 -61.570037 52.066465 -2.658154 -4.909872 -21.060261 -0.050636 3.459216 -3.680397 3.616791 -27.548044 0.923118 -53.677591 -35.091177 28.873590 -7.356401 10.584045 38.045358 24.066585 -51.543813 -30.431756 -106.003635 66.512867 -97.241921 1.035375 -1.788730 4.138315 0.099411 -1.101077 0.109258 -3.502763 -53.736834 11.099859 93.993286 82.983093 91.414071 -6.750592 -7.862724 -1.303592 0.529060 0.884003 0.230926
-67.982539 48.198644 15.201011 175.757506 -30.900714 -0.153589 -3.357847 11.782205 0.637061 -1.854272 6.766045 1.050950 -2.302297 8.462422 1.281303 -1.854256 6.766017 1.050929 1.632283 21.298924 -0.946878 3.226120 3.801086 -2.177597 11.030514 6.407307 -6.280726 20.327740 -45.413373 -43.411178 -35.558044 -61.871030 50.970067 -2.381027 -4.716054 -21.164802 -0.057027 3.434841 -3.694973 3.581588 -27.618984 0.835706 -53.642104 -35.055187 28.832675 -7.379052 10.509097 38.001825 24.166353 -51.550288 -30.567769 -106.059576 66.512824 -97.295874 1.048272 -1.809175 4.152443 0.087845 -1.098349 0.113607 -3.494015 -53.772789 10.999185 93.896298 82.947295 91.346739 -6.757268 -7.864888 -1.368365 0.561569 0.883802 0.240207
-67.988517 48.199795 15.193986 175.764050 -30.836411 -0.091673 -3.349790 11.752342 0.624869 -1.818689 6.820429 1.110567 -2.292909 8.479072 1.302043 -1.847064 6.779334 1.067447 1.613670 21.228987 -1.033219 3.218520 3.673598 -2.330789 11.137038 6.365350 -6.074607 19.885423 -44.929128 -43.074919 -34.377986 -62.146380 49.865881 -2.101415 -4.507599 -21.247281 -0.059525 3.404704 -3.710047 3.633427 -27.621958 0.766753 -53.734437 -35.136651 28.840285 -7.387181 10.464783 37.979862 24.276650 -51.579257 -30.713948 -106.085899 66.511813 -97.327533 1.028008 -1.824403 4.146916 0.107528 -1.096070 0.117200 -3.458345 -53.828611 10.885386 93.814244 82.909271 91.262352 -6.721531 -7.864305 -1.383115 0.527737 0.884443 0.228411
-67.993506 48.201889 15.186533 175.767712 -30.777376 -0.036807 -3.301236 11.789789 0.693864 -1.826996 6.813147 1.104830 -2.284363 8.495450 1.322449 -1.840540 6.792389 1.083626 1.596783 21.160548 -1.120517 3.214457 3.549128 -2.486261 11.252417 6.314309 -5.859294 19.429665 -44.443165 -42.734608 -33.208262 -62.379419 48.784965 -1.837439 -4.309818 -21.294267 -0.066040 3.370903 -3.721498 3.645830 -27.641606 0.693639 -53.797719 -35.206723 28.857604 -7.404880 10.440657 37.948994 24.394384 -51.591744 -30.866305 -106.118085 66.520818 -97.345890 1.028092 -1.843465 4.154839 0.107484 -1.091460 0.106196 -3.428221 -53.880268 10.775946 93.741304 82.869682 91.211248 -6.717918 -7.867072 -1.417023 0.518930 0.884236 0.219734
-68.002895 48.206588 15.175576 175.819838 -30.742596 0.019005 -3.299479 11.853370 0.733087 -1.833972 6.804878 1.099670 -2.275803 8.511197 1.342629 -1.833969 6.804928 1.099674 1.581034 21.094181 -1.206775 3.212297 3.428597 -2.640187 11.374182 6.258311 -5.637548 18.950169 -43.959185 -42.379547 -32.077022 -62.557611 47.759928 -1.612368 -4.144258 -21.309862 -0.083160 3.334846 -3.727437 3.633554 -27.670299 0.619033 -53.831650 -35.258779 28.874372 -7.434083 10.417145 37.917495 24.514386 -51.547875 -31.057592 -106.177468 66.519705 -97.394295 1.083790 -1.899326 4.208941 0.056374 -1.066459 0.081665 -3.401570 -53.910950 10.614241 93.632934 82.827411 91.122403 -6.696556 -7.852384 -1.454191 0.526007 0.871791 0.217468
-68.001783 48.208354 15.171604 175.833959 -30.667290 0.027563 -3.264470 11.863057 0.813799 -1.825525 6.817611 1.115898 -2.264922 8.527128 1.363014 -1.825516 6.817597 1.115930 1.566468 21.030387 -1.289646 3.211306 3.312771 -2.788284 11.504305 6.197256 -5.413563 18.434408 -43.475837 -41.997326 -31.012607 -62.682161 46.808654 -1.452199 -4.019089 -21.301547 -0.109332 3.293428 -3.729495 3.610997 -27.710954 0.539952 -53.853322 -35.265189 28.877518 -7.454313 10.374403 37.899842 24.574854 -51.598518 -31.144265 -106.196271 66.518959 -97.407658 1.090162 -1.904387 4.213200 0.051420 -1.074375 0.074923 -3.417883 -53.983773 10.570510 93.509401 82.812336 91.057492 -6.733331 -7.849285 -1.531595 0.592278 0.870320 0.239866
